<mxfile host="app.diagrams.net" modified="2023-06-12T13:13:08.844Z" agent="Mozilla/5.0 (Windows NT 10.0; Win64; x64) AppleWebKit/537.36 (KHTML, like Gecko) Chrome/114.0.0.0 Safari/537.36" etag="WQjC_BneUAicVJSevlUr" version="21.3.8" type="device">
  <diagram name="Page-1" id="8BPoMCp2TiOr8Bzh_alm">
    <mxGraphModel dx="1744" dy="947" grid="1" gridSize="10" guides="1" tooltips="1" connect="1" arrows="1" fold="1" page="1" pageScale="1" pageWidth="1654" pageHeight="2336" math="0" shadow="0">
      <root>
        <mxCell id="0" />
        <mxCell id="1" parent="0" />
        <mxCell id="gNELy4mMwM59_GkufHWA-8" value="" style="rounded=0;whiteSpace=wrap;html=1;" parent="1" vertex="1">
          <mxGeometry x="310" y="100" width="900" height="1660" as="geometry" />
        </mxCell>
        <mxCell id="gNELy4mMwM59_GkufHWA-6" value="" style="rounded=0;whiteSpace=wrap;html=1;" parent="1" vertex="1">
          <mxGeometry x="120" y="100" width="190" height="1660" as="geometry" />
        </mxCell>
        <mxCell id="gNELy4mMwM59_GkufHWA-1" value="" style="ellipse;html=1;shape=startState;fillColor=#000000;strokeColor=#ff0000;" parent="1" vertex="1">
          <mxGeometry x="200" y="120" width="30" height="30" as="geometry" />
        </mxCell>
        <mxCell id="gNELy4mMwM59_GkufHWA-2" value="" style="edgeStyle=orthogonalEdgeStyle;html=1;verticalAlign=bottom;endArrow=open;endSize=8;strokeColor=#ff0000;rounded=0;entryX=0.5;entryY=0;entryDx=0;entryDy=0;" parent="1" source="gNELy4mMwM59_GkufHWA-1" target="gNELy4mMwM59_GkufHWA-3" edge="1">
          <mxGeometry relative="1" as="geometry">
            <mxPoint x="215" y="240" as="targetPoint" />
          </mxGeometry>
        </mxCell>
        <mxCell id="gNELy4mMwM59_GkufHWA-3" value="Create request for complex tour&lt;br&gt;(Location,Language,&lt;br&gt;Description,Number of people,Date range)" style="rounded=1;whiteSpace=wrap;html=1;" parent="1" vertex="1">
          <mxGeometry x="155" y="190" width="120" height="90" as="geometry" />
        </mxCell>
        <mxCell id="gNELy4mMwM59_GkufHWA-7" value="Guest2" style="text;html=1;strokeColor=none;fillColor=none;align=center;verticalAlign=middle;whiteSpace=wrap;rounded=0;" parent="1" vertex="1">
          <mxGeometry x="130" y="100" width="60" height="30" as="geometry" />
        </mxCell>
        <mxCell id="gNELy4mMwM59_GkufHWA-9" value="System" style="text;html=1;strokeColor=none;fillColor=none;align=center;verticalAlign=middle;whiteSpace=wrap;rounded=0;" parent="1" vertex="1">
          <mxGeometry x="310" y="100" width="60" height="30" as="geometry" />
        </mxCell>
        <mxCell id="gNELy4mMwM59_GkufHWA-11" value="" style="rounded=0;whiteSpace=wrap;html=1;" parent="1" vertex="1">
          <mxGeometry x="1210" y="100" width="190" height="1660" as="geometry" />
        </mxCell>
        <mxCell id="gNELy4mMwM59_GkufHWA-18" value="" style="edgeStyle=orthogonalEdgeStyle;rounded=0;orthogonalLoop=1;jettySize=auto;html=1;" parent="1" source="gNELy4mMwM59_GkufHWA-14" target="gNELy4mMwM59_GkufHWA-17" edge="1">
          <mxGeometry relative="1" as="geometry" />
        </mxCell>
        <mxCell id="gNELy4mMwM59_GkufHWA-14" value="Is valid request" style="rounded=1;whiteSpace=wrap;html=1;" parent="1" vertex="1">
          <mxGeometry x="460" y="170" width="90" height="60" as="geometry" />
        </mxCell>
        <mxCell id="gNELy4mMwM59_GkufHWA-21" value="" style="edgeStyle=orthogonalEdgeStyle;rounded=0;orthogonalLoop=1;jettySize=auto;html=1;" parent="1" source="gNELy4mMwM59_GkufHWA-17" target="gNELy4mMwM59_GkufHWA-20" edge="1">
          <mxGeometry relative="1" as="geometry" />
        </mxCell>
        <mxCell id="gNELy4mMwM59_GkufHWA-49" style="edgeStyle=orthogonalEdgeStyle;rounded=0;orthogonalLoop=1;jettySize=auto;html=1;entryX=1;entryY=0.5;entryDx=0;entryDy=0;" parent="1" source="gNELy4mMwM59_GkufHWA-17" target="gNELy4mMwM59_GkufHWA-23" edge="1">
          <mxGeometry relative="1" as="geometry">
            <Array as="points">
              <mxPoint x="613" y="275" />
            </Array>
          </mxGeometry>
        </mxCell>
        <mxCell id="gNELy4mMwM59_GkufHWA-17" value="" style="rhombus;whiteSpace=wrap;html=1;" parent="1" vertex="1">
          <mxGeometry x="587.5" y="175" width="50" height="50" as="geometry" />
        </mxCell>
        <mxCell id="gNELy4mMwM59_GkufHWA-19" value="Valid request?" style="text;html=1;strokeColor=none;fillColor=none;align=center;verticalAlign=middle;whiteSpace=wrap;rounded=0;" parent="1" vertex="1">
          <mxGeometry x="580" y="140" width="65" height="30" as="geometry" />
        </mxCell>
        <mxCell id="gNELy4mMwM59_GkufHWA-38" value="" style="edgeStyle=orthogonalEdgeStyle;rounded=0;orthogonalLoop=1;jettySize=auto;html=1;" parent="1" source="gNELy4mMwM59_GkufHWA-20" target="gNELy4mMwM59_GkufHWA-37" edge="1">
          <mxGeometry relative="1" as="geometry" />
        </mxCell>
        <mxCell id="gNELy4mMwM59_GkufHWA-20" value="Add to list requests" style="rounded=1;whiteSpace=wrap;html=1;" parent="1" vertex="1">
          <mxGeometry x="715" y="170" width="90" height="60" as="geometry" />
        </mxCell>
        <mxCell id="gNELy4mMwM59_GkufHWA-48" style="edgeStyle=orthogonalEdgeStyle;rounded=0;orthogonalLoop=1;jettySize=auto;html=1;entryX=0;entryY=0.5;entryDx=0;entryDy=0;exitX=0.5;exitY=0;exitDx=0;exitDy=0;" parent="1" source="gNELy4mMwM59_GkufHWA-23" target="gNELy4mMwM59_GkufHWA-14" edge="1">
          <mxGeometry relative="1" as="geometry" />
        </mxCell>
        <mxCell id="gNELy4mMwM59_GkufHWA-23" value="" style="rhombus;whiteSpace=wrap;html=1;" parent="1" vertex="1">
          <mxGeometry x="370" y="250" width="50" height="50" as="geometry" />
        </mxCell>
        <mxCell id="gNELy4mMwM59_GkufHWA-58" style="edgeStyle=orthogonalEdgeStyle;rounded=0;orthogonalLoop=1;jettySize=auto;html=1;entryX=0.5;entryY=1;entryDx=0;entryDy=0;" parent="1" source="gNELy4mMwM59_GkufHWA-37" target="gNELy4mMwM59_GkufHWA-23" edge="1">
          <mxGeometry relative="1" as="geometry">
            <Array as="points">
              <mxPoint x="928" y="320" />
              <mxPoint x="395" y="320" />
            </Array>
          </mxGeometry>
        </mxCell>
        <mxCell id="gNELy4mMwM59_GkufHWA-37" value="" style="rhombus;whiteSpace=wrap;html=1;" parent="1" vertex="1">
          <mxGeometry x="902.5" y="175" width="50" height="50" as="geometry" />
        </mxCell>
        <mxCell id="gNELy4mMwM59_GkufHWA-39" value="Are there any other parts of the tour?&amp;nbsp;" style="text;html=1;strokeColor=none;fillColor=none;align=center;verticalAlign=middle;whiteSpace=wrap;rounded=0;" parent="1" vertex="1">
          <mxGeometry x="890" y="115" width="95" height="60" as="geometry" />
        </mxCell>
        <mxCell id="gNELy4mMwM59_GkufHWA-44" value="" style="endArrow=classic;html=1;rounded=0;entryX=0;entryY=0;entryDx=0;entryDy=0;exitX=1.048;exitY=0.388;exitDx=0;exitDy=0;exitPerimeter=0;" parent="1" source="gNELy4mMwM59_GkufHWA-3" target="gNELy4mMwM59_GkufHWA-23" edge="1">
          <mxGeometry width="50" height="50" relative="1" as="geometry">
            <mxPoint x="290" y="225" as="sourcePoint" />
            <mxPoint x="340" y="175" as="targetPoint" />
          </mxGeometry>
        </mxCell>
        <mxCell id="gNELy4mMwM59_GkufHWA-53" value="Yes" style="text;html=1;strokeColor=none;fillColor=none;align=center;verticalAlign=middle;whiteSpace=wrap;rounded=0;" parent="1" vertex="1">
          <mxGeometry x="660" y="170" width="35" height="20" as="geometry" />
        </mxCell>
        <mxCell id="gNELy4mMwM59_GkufHWA-54" value="No" style="text;html=1;strokeColor=none;fillColor=none;align=center;verticalAlign=middle;whiteSpace=wrap;rounded=0;" parent="1" vertex="1">
          <mxGeometry x="620" y="230" width="30" height="30" as="geometry" />
        </mxCell>
        <mxCell id="-ve8lsEsOyCSf-6zEsDF-4" value="" style="edgeStyle=orthogonalEdgeStyle;rounded=0;orthogonalLoop=1;jettySize=auto;html=1;exitX=0;exitY=0.5;exitDx=0;exitDy=0;" parent="1" source="gNELy4mMwM59_GkufHWA-55" target="-ve8lsEsOyCSf-6zEsDF-3" edge="1">
          <mxGeometry relative="1" as="geometry">
            <mxPoint x="715" y="550" as="sourcePoint" />
          </mxGeometry>
        </mxCell>
        <mxCell id="gNELy4mMwM59_GkufHWA-55" value="Storage of a complex request" style="rounded=1;whiteSpace=wrap;html=1;" parent="1" vertex="1">
          <mxGeometry x="797.5" y="520" width="92.5" height="60" as="geometry" />
        </mxCell>
        <mxCell id="gNELy4mMwM59_GkufHWA-56" value="Add request" style="text;html=1;strokeColor=none;fillColor=none;align=center;verticalAlign=middle;whiteSpace=wrap;rounded=0;" parent="1" vertex="1">
          <mxGeometry x="340" y="175" width="80" height="30" as="geometry" />
        </mxCell>
        <mxCell id="gNELy4mMwM59_GkufHWA-59" value="Yes" style="text;html=1;strokeColor=none;fillColor=none;align=center;verticalAlign=middle;whiteSpace=wrap;rounded=0;" parent="1" vertex="1">
          <mxGeometry x="890" y="225" width="40" height="30" as="geometry" />
        </mxCell>
        <mxCell id="-ve8lsEsOyCSf-6zEsDF-17" style="edgeStyle=orthogonalEdgeStyle;rounded=0;orthogonalLoop=1;jettySize=auto;html=1;entryX=1;entryY=0.5;entryDx=0;entryDy=0;exitX=1;exitY=0.5;exitDx=0;exitDy=0;" parent="1" source="gNELy4mMwM59_GkufHWA-37" target="-ve8lsEsOyCSf-6zEsDF-14" edge="1">
          <mxGeometry relative="1" as="geometry">
            <Array as="points">
              <mxPoint x="1055" y="200" />
              <mxPoint x="1055" y="550" />
            </Array>
          </mxGeometry>
        </mxCell>
        <mxCell id="gNELy4mMwM59_GkufHWA-61" value="No" style="text;html=1;strokeColor=none;fillColor=none;align=center;verticalAlign=middle;whiteSpace=wrap;rounded=0;" parent="1" vertex="1">
          <mxGeometry x="960" y="175" width="37.5" height="30" as="geometry" />
        </mxCell>
        <mxCell id="gNELy4mMwM59_GkufHWA-62" value="Show of a complex requests" style="rounded=1;whiteSpace=wrap;html=1;" parent="1" vertex="1">
          <mxGeometry x="325" y="675" width="110" height="60" as="geometry" />
        </mxCell>
        <mxCell id="gNELy4mMwM59_GkufHWA-69" style="edgeStyle=orthogonalEdgeStyle;rounded=0;orthogonalLoop=1;jettySize=auto;html=1;entryX=0;entryY=0.5;entryDx=0;entryDy=0;exitX=0.5;exitY=1;exitDx=0;exitDy=0;" parent="1" source="gNELy4mMwM59_GkufHWA-66" target="gNELy4mMwM59_GkufHWA-68" edge="1">
          <mxGeometry relative="1" as="geometry" />
        </mxCell>
        <mxCell id="gNELy4mMwM59_GkufHWA-66" value="Choose one complex request" style="rounded=1;whiteSpace=wrap;html=1;" parent="1" vertex="1">
          <mxGeometry x="150" y="870" width="120" height="60" as="geometry" />
        </mxCell>
        <mxCell id="-ve8lsEsOyCSf-6zEsDF-2" value="" style="edgeStyle=orthogonalEdgeStyle;rounded=0;orthogonalLoop=1;jettySize=auto;html=1;" parent="1" source="gNELy4mMwM59_GkufHWA-68" target="-ve8lsEsOyCSf-6zEsDF-1" edge="1">
          <mxGeometry relative="1" as="geometry" />
        </mxCell>
        <mxCell id="gNELy4mMwM59_GkufHWA-68" value="Show one complex request&amp;nbsp;" style="rounded=1;whiteSpace=wrap;html=1;" parent="1" vertex="1">
          <mxGeometry x="430" y="990" width="120" height="60" as="geometry" />
        </mxCell>
        <mxCell id="-ve8lsEsOyCSf-6zEsDF-1" value="" style="ellipse;html=1;shape=endState;fillColor=#000000;strokeColor=#ff0000;" parent="1" vertex="1">
          <mxGeometry x="475" y="1090" width="30" height="30" as="geometry" />
        </mxCell>
        <mxCell id="-ve8lsEsOyCSf-6zEsDF-21" value="" style="edgeStyle=orthogonalEdgeStyle;rounded=0;orthogonalLoop=1;jettySize=auto;html=1;" parent="1" source="-ve8lsEsOyCSf-6zEsDF-3" target="-ve8lsEsOyCSf-6zEsDF-12" edge="1">
          <mxGeometry relative="1" as="geometry" />
        </mxCell>
        <mxCell id="-ve8lsEsOyCSf-6zEsDF-3" value="Load requests" style="rounded=1;whiteSpace=wrap;html=1;" parent="1" vertex="1">
          <mxGeometry x="602.5" y="520" width="120" height="60" as="geometry" />
        </mxCell>
        <mxCell id="-ve8lsEsOyCSf-6zEsDF-48" style="edgeStyle=orthogonalEdgeStyle;rounded=0;orthogonalLoop=1;jettySize=auto;html=1;entryX=0.5;entryY=0;entryDx=0;entryDy=0;exitX=0.5;exitY=1;exitDx=0;exitDy=0;" parent="1" source="gNELy4mMwM59_GkufHWA-62" target="gNELy4mMwM59_GkufHWA-66" edge="1">
          <mxGeometry relative="1" as="geometry">
            <mxPoint x="505.05263157894774" y="775.0526315789475" as="sourcePoint" />
          </mxGeometry>
        </mxCell>
        <mxCell id="-ve8lsEsOyCSf-6zEsDF-9" value="Guide" style="text;html=1;strokeColor=none;fillColor=none;align=center;verticalAlign=middle;whiteSpace=wrap;rounded=0;" parent="1" vertex="1">
          <mxGeometry x="1210" y="100" width="60" height="30" as="geometry" />
        </mxCell>
        <mxCell id="-ve8lsEsOyCSf-6zEsDF-10" value="" style="html=1;align=center;verticalAlign=top;rounded=1;absoluteArcSize=1;arcSize=20;dashed=1;whiteSpace=wrap;" parent="1" vertex="1">
          <mxGeometry x="470" y="350" width="280" height="120" as="geometry" />
        </mxCell>
        <mxCell id="-ve8lsEsOyCSf-6zEsDF-42" style="edgeStyle=orthogonalEdgeStyle;rounded=0;orthogonalLoop=1;jettySize=auto;html=1;entryX=0;entryY=0.5;entryDx=0;entryDy=0;exitX=0.5;exitY=0;exitDx=0;exitDy=0;" parent="1" source="-ve8lsEsOyCSf-6zEsDF-12" target="-ve8lsEsOyCSf-6zEsDF-23" edge="1">
          <mxGeometry relative="1" as="geometry">
            <Array as="points">
              <mxPoint x="435" y="405" />
            </Array>
          </mxGeometry>
        </mxCell>
        <mxCell id="-ve8lsEsOyCSf-6zEsDF-45" style="edgeStyle=orthogonalEdgeStyle;rounded=0;orthogonalLoop=1;jettySize=auto;html=1;entryX=0.5;entryY=0;entryDx=0;entryDy=0;exitX=0;exitY=0.5;exitDx=0;exitDy=0;" parent="1" source="-ve8lsEsOyCSf-6zEsDF-12" target="gNELy4mMwM59_GkufHWA-62" edge="1">
          <mxGeometry relative="1" as="geometry" />
        </mxCell>
        <mxCell id="-ve8lsEsOyCSf-6zEsDF-12" value="" style="rhombus;whiteSpace=wrap;html=1;" parent="1" vertex="1">
          <mxGeometry x="410" y="525" width="50" height="50" as="geometry" />
        </mxCell>
        <mxCell id="-ve8lsEsOyCSf-6zEsDF-20" value="" style="edgeStyle=orthogonalEdgeStyle;rounded=0;orthogonalLoop=1;jettySize=auto;html=1;" parent="1" source="-ve8lsEsOyCSf-6zEsDF-14" target="gNELy4mMwM59_GkufHWA-55" edge="1">
          <mxGeometry relative="1" as="geometry" />
        </mxCell>
        <mxCell id="-ve8lsEsOyCSf-6zEsDF-14" value="" style="rhombus;whiteSpace=wrap;html=1;" parent="1" vertex="1">
          <mxGeometry x="960" y="525" width="50" height="50" as="geometry" />
        </mxCell>
        <mxCell id="-ve8lsEsOyCSf-6zEsDF-22" value="&amp;lt;&amp;lt;iterative&amp;gt;&amp;gt;" style="text;html=1;strokeColor=none;fillColor=none;align=center;verticalAlign=middle;whiteSpace=wrap;rounded=0;" parent="1" vertex="1">
          <mxGeometry x="490" y="350" width="90" height="30" as="geometry" />
        </mxCell>
        <mxCell id="-ve8lsEsOyCSf-6zEsDF-26" value="" style="edgeStyle=orthogonalEdgeStyle;rounded=0;orthogonalLoop=1;jettySize=auto;html=1;" parent="1" source="-ve8lsEsOyCSf-6zEsDF-23" target="-ve8lsEsOyCSf-6zEsDF-24" edge="1">
          <mxGeometry relative="1" as="geometry" />
        </mxCell>
        <mxCell id="-ve8lsEsOyCSf-6zEsDF-23" value="" style="rhombus;whiteSpace=wrap;html=1;" parent="1" vertex="1">
          <mxGeometry x="510" y="380" width="50" height="50" as="geometry" />
        </mxCell>
        <mxCell id="-ve8lsEsOyCSf-6zEsDF-44" value="" style="edgeStyle=orthogonalEdgeStyle;rounded=0;orthogonalLoop=1;jettySize=auto;html=1;" parent="1" source="-ve8lsEsOyCSf-6zEsDF-24" target="-ve8lsEsOyCSf-6zEsDF-38" edge="1">
          <mxGeometry relative="1" as="geometry" />
        </mxCell>
        <mxCell id="-ve8lsEsOyCSf-6zEsDF-24" value="Change to &quot;unaccepted&quot;" style="rounded=1;whiteSpace=wrap;html=1;" parent="1" vertex="1">
          <mxGeometry x="620" y="375" width="85" height="60" as="geometry" />
        </mxCell>
        <mxCell id="-ve8lsEsOyCSf-6zEsDF-25" value="48h&amp;nbsp;before the start of the first request?" style="text;html=1;strokeColor=none;fillColor=none;align=center;verticalAlign=middle;whiteSpace=wrap;rounded=0;" parent="1" vertex="1">
          <mxGeometry x="495" y="435" width="85" height="30" as="geometry" />
        </mxCell>
        <mxCell id="-ve8lsEsOyCSf-6zEsDF-27" value="Yes" style="text;html=1;strokeColor=none;fillColor=none;align=center;verticalAlign=middle;whiteSpace=wrap;rounded=0;" parent="1" vertex="1">
          <mxGeometry x="560" y="380" width="60" height="30" as="geometry" />
        </mxCell>
        <mxCell id="-ve8lsEsOyCSf-6zEsDF-34" value="" style="rounded=0;whiteSpace=wrap;html=1;" parent="1" vertex="1">
          <mxGeometry x="460" y="375" width="20" height="65" as="geometry" />
        </mxCell>
        <mxCell id="-ve8lsEsOyCSf-6zEsDF-35" value="" style="endArrow=none;html=1;rounded=0;entryX=1;entryY=0.25;entryDx=0;entryDy=0;exitX=0;exitY=0.25;exitDx=0;exitDy=0;" parent="1" source="-ve8lsEsOyCSf-6zEsDF-34" target="-ve8lsEsOyCSf-6zEsDF-34" edge="1">
          <mxGeometry width="50" height="50" relative="1" as="geometry">
            <mxPoint x="430" y="485" as="sourcePoint" />
            <mxPoint x="480" y="435" as="targetPoint" />
          </mxGeometry>
        </mxCell>
        <mxCell id="-ve8lsEsOyCSf-6zEsDF-36" value="" style="endArrow=none;html=1;rounded=0;exitX=0.02;exitY=0.461;exitDx=0;exitDy=0;entryX=1.006;entryY=0.461;entryDx=0;entryDy=0;entryPerimeter=0;exitPerimeter=0;" parent="1" source="-ve8lsEsOyCSf-6zEsDF-34" target="-ve8lsEsOyCSf-6zEsDF-34" edge="1">
          <mxGeometry width="50" height="50" relative="1" as="geometry">
            <mxPoint x="470" y="401" as="sourcePoint" />
            <mxPoint x="480" y="411" as="targetPoint" />
          </mxGeometry>
        </mxCell>
        <mxCell id="-ve8lsEsOyCSf-6zEsDF-37" value="" style="endArrow=none;html=1;rounded=0;exitX=0.035;exitY=0.713;exitDx=0;exitDy=0;exitPerimeter=0;entryX=0.994;entryY=0.712;entryDx=0;entryDy=0;entryPerimeter=0;" parent="1" source="-ve8lsEsOyCSf-6zEsDF-34" target="-ve8lsEsOyCSf-6zEsDF-34" edge="1">
          <mxGeometry width="50" height="50" relative="1" as="geometry">
            <mxPoint x="470" y="421" as="sourcePoint" />
            <mxPoint x="480" y="420" as="targetPoint" />
          </mxGeometry>
        </mxCell>
        <mxCell id="-ve8lsEsOyCSf-6zEsDF-43" style="edgeStyle=orthogonalEdgeStyle;rounded=0;orthogonalLoop=1;jettySize=auto;html=1;entryX=0.5;entryY=0;entryDx=0;entryDy=0;" parent="1" source="-ve8lsEsOyCSf-6zEsDF-38" target="-ve8lsEsOyCSf-6zEsDF-14" edge="1">
          <mxGeometry relative="1" as="geometry" />
        </mxCell>
        <mxCell id="-ve8lsEsOyCSf-6zEsDF-38" value="" style="rounded=0;whiteSpace=wrap;html=1;" parent="1" vertex="1">
          <mxGeometry x="740" y="372.5" width="20" height="65" as="geometry" />
        </mxCell>
        <mxCell id="-ve8lsEsOyCSf-6zEsDF-39" value="" style="endArrow=none;html=1;rounded=0;entryX=1;entryY=0.25;entryDx=0;entryDy=0;exitX=0;exitY=0.25;exitDx=0;exitDy=0;" parent="1" source="-ve8lsEsOyCSf-6zEsDF-38" target="-ve8lsEsOyCSf-6zEsDF-38" edge="1">
          <mxGeometry width="50" height="50" relative="1" as="geometry">
            <mxPoint x="710" y="482.5" as="sourcePoint" />
            <mxPoint x="760" y="432.5" as="targetPoint" />
          </mxGeometry>
        </mxCell>
        <mxCell id="-ve8lsEsOyCSf-6zEsDF-40" value="" style="endArrow=none;html=1;rounded=0;exitX=0;exitY=0.5;exitDx=0;exitDy=0;entryX=1;entryY=0.5;entryDx=0;entryDy=0;" parent="1" source="-ve8lsEsOyCSf-6zEsDF-38" target="-ve8lsEsOyCSf-6zEsDF-38" edge="1">
          <mxGeometry width="50" height="50" relative="1" as="geometry">
            <mxPoint x="750" y="398.5" as="sourcePoint" />
            <mxPoint x="760" y="408.5" as="targetPoint" />
          </mxGeometry>
        </mxCell>
        <mxCell id="-ve8lsEsOyCSf-6zEsDF-41" value="" style="endArrow=none;html=1;rounded=0;exitX=0;exitY=0.75;exitDx=0;exitDy=0;entryX=1;entryY=0.75;entryDx=0;entryDy=0;" parent="1" source="-ve8lsEsOyCSf-6zEsDF-38" target="-ve8lsEsOyCSf-6zEsDF-38" edge="1">
          <mxGeometry width="50" height="50" relative="1" as="geometry">
            <mxPoint x="750" y="418.5" as="sourcePoint" />
            <mxPoint x="770" y="418.5" as="targetPoint" />
          </mxGeometry>
        </mxCell>
        <mxCell id="-ve8lsEsOyCSf-6zEsDF-47" value="" style="edgeStyle=orthogonalEdgeStyle;rounded=0;orthogonalLoop=1;jettySize=auto;html=1;" parent="1" source="-ve8lsEsOyCSf-6zEsDF-46" target="-ve8lsEsOyCSf-6zEsDF-14" edge="1">
          <mxGeometry relative="1" as="geometry" />
        </mxCell>
        <mxCell id="-ve8lsEsOyCSf-6zEsDF-46" value="A" style="ellipse;whiteSpace=wrap;html=1;aspect=fixed;" parent="1" vertex="1">
          <mxGeometry x="965" y="610" width="40" height="40" as="geometry" />
        </mxCell>
        <mxCell id="bZ3Upsa8VaGHeyiVMd8T-10" style="edgeStyle=orthogonalEdgeStyle;rounded=0;orthogonalLoop=1;jettySize=auto;html=1;exitX=0.5;exitY=1;exitDx=0;exitDy=0;" parent="1" source="-ve8lsEsOyCSf-6zEsDF-12" target="bZ3Upsa8VaGHeyiVMd8T-11" edge="1">
          <mxGeometry relative="1" as="geometry">
            <mxPoint x="500" y="600" as="sourcePoint" />
            <mxPoint x="500" y="550" as="targetPoint" />
            <Array as="points" />
          </mxGeometry>
        </mxCell>
        <mxCell id="bZ3Upsa8VaGHeyiVMd8T-11" value="Show available request parts for guide" style="rounded=1;whiteSpace=wrap;html=1;" parent="1" vertex="1">
          <mxGeometry x="780" y="720" width="110" height="60" as="geometry" />
        </mxCell>
        <mxCell id="bZ3Upsa8VaGHeyiVMd8T-12" style="edgeStyle=orthogonalEdgeStyle;rounded=0;orthogonalLoop=1;jettySize=auto;html=1;entryX=0.5;entryY=0;entryDx=0;entryDy=0;exitX=0.591;exitY=1;exitDx=0;exitDy=0;exitPerimeter=0;" parent="1" source="bZ3Upsa8VaGHeyiVMd8T-11" target="bZ3Upsa8VaGHeyiVMd8T-13" edge="1">
          <mxGeometry relative="1" as="geometry">
            <mxPoint x="910" y="760" as="sourcePoint" />
            <mxPoint x="740" y="895" as="targetPoint" />
            <Array as="points">
              <mxPoint x="840" y="780" />
              <mxPoint x="840" y="810" />
              <mxPoint x="1290" y="810" />
            </Array>
          </mxGeometry>
        </mxCell>
        <mxCell id="bZ3Upsa8VaGHeyiVMd8T-13" value="Choose one complex request" style="rounded=1;whiteSpace=wrap;html=1;" parent="1" vertex="1">
          <mxGeometry x="1230" y="830" width="120" height="60" as="geometry" />
        </mxCell>
        <mxCell id="bZ3Upsa8VaGHeyiVMd8T-16" style="edgeStyle=orthogonalEdgeStyle;rounded=0;orthogonalLoop=1;jettySize=auto;html=1;entryX=0.5;entryY=0;entryDx=0;entryDy=0;exitX=0.5;exitY=1;exitDx=0;exitDy=0;" parent="1" source="bZ3Upsa8VaGHeyiVMd8T-13" target="bZ3Upsa8VaGHeyiVMd8T-17" edge="1">
          <mxGeometry relative="1" as="geometry">
            <mxPoint x="422.24" y="885" as="sourcePoint" />
            <mxPoint x="1097.24" y="915" as="targetPoint" />
          </mxGeometry>
        </mxCell>
        <mxCell id="bZ3Upsa8VaGHeyiVMd8T-17" value="Show available appointments for chosen request&amp;nbsp;" style="rounded=1;whiteSpace=wrap;html=1;" parent="1" vertex="1">
          <mxGeometry x="782.5" y="940" width="120" height="60" as="geometry" />
        </mxCell>
        <mxCell id="bZ3Upsa8VaGHeyiVMd8T-18" style="edgeStyle=orthogonalEdgeStyle;rounded=0;orthogonalLoop=1;jettySize=auto;html=1;exitX=0.5;exitY=1;exitDx=0;exitDy=0;entryX=0.5;entryY=0;entryDx=0;entryDy=0;" parent="1" source="bZ3Upsa8VaGHeyiVMd8T-17" target="bZ3Upsa8VaGHeyiVMd8T-19" edge="1">
          <mxGeometry relative="1" as="geometry">
            <mxPoint x="1220" y="1020" as="sourcePoint" />
            <mxPoint x="1030" y="1070" as="targetPoint" />
            <Array as="points">
              <mxPoint x="842" y="1020" />
            </Array>
          </mxGeometry>
        </mxCell>
        <mxCell id="bZ3Upsa8VaGHeyiVMd8T-19" value="Choose appointment&amp;nbsp;" style="rounded=1;whiteSpace=wrap;html=1;" parent="1" vertex="1">
          <mxGeometry x="1230" y="1050" width="120" height="60" as="geometry" />
        </mxCell>
        <mxCell id="bZ3Upsa8VaGHeyiVMd8T-20" value="Accept request" style="rounded=1;whiteSpace=wrap;html=1;" parent="1" vertex="1">
          <mxGeometry x="1230" y="1150" width="120" height="60" as="geometry" />
        </mxCell>
        <mxCell id="bZ3Upsa8VaGHeyiVMd8T-23" value="" style="edgeStyle=orthogonalEdgeStyle;rounded=0;orthogonalLoop=1;jettySize=auto;html=1;exitX=0.5;exitY=1;exitDx=0;exitDy=0;entryX=0.5;entryY=0;entryDx=0;entryDy=0;" parent="1" source="bZ3Upsa8VaGHeyiVMd8T-19" target="bZ3Upsa8VaGHeyiVMd8T-20" edge="1">
          <mxGeometry relative="1" as="geometry">
            <mxPoint x="820" y="1148" as="sourcePoint" />
            <mxPoint x="820" y="1188" as="targetPoint" />
            <Array as="points">
              <mxPoint x="1290" y="1130" />
              <mxPoint x="1290" y="1130" />
            </Array>
          </mxGeometry>
        </mxCell>
        <mxCell id="bZ3Upsa8VaGHeyiVMd8T-24" value="Create tour by request" style="rounded=1;whiteSpace=wrap;html=1;" parent="1" vertex="1">
          <mxGeometry x="575" y="1280" width="120" height="60" as="geometry" />
        </mxCell>
        <mxCell id="bZ3Upsa8VaGHeyiVMd8T-25" value="" style="edgeStyle=orthogonalEdgeStyle;rounded=0;orthogonalLoop=1;jettySize=auto;html=1;entryX=0.5;entryY=0;entryDx=0;entryDy=0;exitX=0.5;exitY=1;exitDx=0;exitDy=0;" parent="1" source="bZ3Upsa8VaGHeyiVMd8T-20" target="bZ3Upsa8VaGHeyiVMd8T-24" edge="1">
          <mxGeometry relative="1" as="geometry">
            <mxPoint x="990" y="1168" as="sourcePoint" />
            <mxPoint x="987.5" y="1256" as="targetPoint" />
            <Array as="points">
              <mxPoint x="1290" y="1230" />
              <mxPoint x="635" y="1230" />
            </Array>
          </mxGeometry>
        </mxCell>
        <mxCell id="7mUq4Ys8tXXHykeceGQT-1" value="Update tourRequestState to &#39;accepted&#39;" style="rounded=1;whiteSpace=wrap;html=1;" parent="1" vertex="1">
          <mxGeometry x="575" y="1420" width="110" height="60" as="geometry" />
        </mxCell>
        <mxCell id="7mUq4Ys8tXXHykeceGQT-4" value="" style="edgeStyle=orthogonalEdgeStyle;rounded=0;orthogonalLoop=1;jettySize=auto;html=1;entryX=0.5;entryY=0;entryDx=0;entryDy=0;exitX=0.5;exitY=1;exitDx=0;exitDy=0;" parent="1" source="bZ3Upsa8VaGHeyiVMd8T-24" target="7mUq4Ys8tXXHykeceGQT-1" edge="1">
          <mxGeometry relative="1" as="geometry">
            <mxPoint x="680" y="1450" as="sourcePoint" />
            <mxPoint x="500" y="1500" as="targetPoint" />
            <Array as="points">
              <mxPoint x="630" y="1340" />
            </Array>
          </mxGeometry>
        </mxCell>
        <mxCell id="7mUq4Ys8tXXHykeceGQT-5" value="" style="edgeStyle=orthogonalEdgeStyle;rounded=0;orthogonalLoop=1;jettySize=auto;html=1;entryX=0.5;entryY=0;entryDx=0;entryDy=0;exitX=0.5;exitY=1;exitDx=0;exitDy=0;" parent="1" source="7mUq4Ys8tXXHykeceGQT-1" target="7mUq4Ys8tXXHykeceGQT-6" edge="1">
          <mxGeometry relative="1" as="geometry">
            <mxPoint x="620" y="1484" as="sourcePoint" />
            <mxPoint x="722.5" y="1540" as="targetPoint" />
            <Array as="points">
              <mxPoint x="630" y="1570" />
            </Array>
          </mxGeometry>
        </mxCell>
        <mxCell id="7mUq4Ys8tXXHykeceGQT-6" value="A" style="ellipse;whiteSpace=wrap;html=1;aspect=fixed;" parent="1" vertex="1">
          <mxGeometry x="610" y="1570" width="40" height="40" as="geometry" />
        </mxCell>
      </root>
    </mxGraphModel>
  </diagram>
</mxfile>
